<?xml version="1.0" encoding="utf-8"?><svg xmlns="http://www.w3.org/2000/svg" xmlns:xlink="http://www.w3.org/1999/xlink"><symbol viewBox="0 0 512 512" id="facebook" xmlns="http://www.w3.org/2000/svg"><path d="M437.02 74.98C388.667 26.629 324.38 0 256 0S123.333 26.629 74.98 74.98C26.629 123.333 0 187.62 0 256s26.629 132.667 74.98 181.02C123.333 485.371 187.62 512 256 512s132.667-26.629 181.02-74.98C485.371 388.667 512 324.38 512 256s-26.629-132.667-74.98-181.02zm-10.607 351.433c-34.091 34.091-76.596 56.708-122.832 65.917V327.629h34.338a15.494 15.494 0 0015.053-11.753l12.025-48.097c1.167-4.668.137-9.52-2.824-13.312s-7.418-5.967-12.229-5.967h-53.862a7.5 7.5 0 000 15h53.862c.075 0 .251 0 .407.199.155.198.112.37.094.443l-12.024 48.097a.517.517 0 01-.501.391h-41.838a7.5 7.5 0 00-7.5 7.5v174.684A245.007 245.007 0 01256 497c-64.374 0-124.894-25.068-170.413-70.587S15 320.374 15 256 40.068 131.106 85.587 85.587 191.626 15 256 15s124.894 25.068 170.413 70.587S497 191.626 497 256s-25.068 124.894-70.587 170.413z"/><path d="M352.193 96.193h-48.097c-52.757 0-95.677 42.921-95.677 95.678V248.5h-48.613c-8.556 0-15.516 6.96-15.516 15.516v48.097c0 8.556 6.96 15.516 15.516 15.516h48.613V464.42a7.5 7.5 0 0015 0V320.129a7.5 7.5 0 00-7.5-7.5h-56.113a.516.516 0 01-.516-.516v-48.097c0-.285.231-.516.516-.516h56.113a7.5 7.5 0 007.5-7.5v-64.129c0-44.486 36.192-80.678 80.677-80.678h48.097c.285 0 .516.231.516.516v48.097a.516.516 0 01-.516.516h-32.064c-17.396 0-31.548 14.152-31.548 31.548v32.064a7.5 7.5 0 0015 0V191.87c0-9.125 7.423-16.548 16.548-16.548h32.064c8.556 0 15.516-6.96 15.516-15.516v-48.097c0-8.555-6.96-15.516-15.516-15.516z"/></symbol><symbol viewBox="0 0 512 512" id="home" xmlns="http://www.w3.org/2000/svg"><path d="M498.195 222.695l-.035-.035L289.305 13.813C280.402 4.905 268.566 0 255.977 0c-12.59 0-24.426 4.902-33.332 13.809L13.898 222.55c-.07.07-.14.144-.21.215-18.282 18.386-18.25 48.218.09 66.558 8.378 8.383 19.445 13.238 31.277 13.746.48.047.965.07 1.453.07h8.324v153.7C54.832 487.254 79.578 512 110 512h81.71c8.282 0 15-6.715 15-15V376.5c0-13.879 11.29-25.168 25.169-25.168h48.195c13.88 0 25.168 11.29 25.168 25.168V497c0 8.285 6.715 15 15 15h81.711c30.422 0 55.168-24.746 55.168-55.16v-153.7h7.719c12.586 0 24.422-4.902 33.332-13.808 18.36-18.371 18.367-48.254.023-66.637zm0 0"/></symbol><symbol viewBox="0 0 512 512" id="instagram" xmlns="http://www.w3.org/2000/svg"><path d="M424.339 0H87.661C39.325 0 0 39.325 0 87.661v336.678C0 472.675 39.325 512 87.661 512h336.678C472.675 512 512 472.675 512 424.339V87.661C512 39.325 472.675 0 424.339 0zM497 424.339C497 464.404 464.404 497 424.339 497H87.661C47.596 497 15 464.404 15 424.339V87.661C15 47.596 47.596 15 87.661 15h336.678C464.404 15 497 47.596 497 87.661z"/><path d="M256 112.226c-79.277 0-143.774 64.497-143.774 143.774S176.723 399.774 256 399.774 399.774 335.277 399.774 256 335.277 112.226 256 112.226zm0 272.548c-71.006 0-128.774-57.768-128.774-128.774S184.994 127.226 256 127.226 384.774 184.994 384.774 256 327.006 384.774 256 384.774zM408.307 64.129c-21.816 0-39.565 17.749-39.565 39.564 0 21.816 17.749 39.565 39.565 39.565s39.564-17.749 39.564-39.565-17.748-39.564-39.564-39.564zm0 64.129c-13.545 0-24.565-11.02-24.565-24.565s11.02-24.564 24.565-24.564 24.564 11.02 24.564 24.564-11.019 24.565-24.564 24.565z"/><path d="M193.284 193.284c30.7-30.7 78.656-34.7 114.028-9.511a7.5 7.5 0 008.701-12.219c-19.742-14.058-43.973-20.761-68.224-18.876-24.551 1.908-47.675 12.562-65.112 30-17.437 17.437-28.091 40.561-30 65.111-1.885 24.253 4.819 48.482 18.876 68.224a7.488 7.488 0 006.116 3.15 7.5 7.5 0 006.103-11.851c-25.188-35.373-21.188-83.328 9.512-114.028zm136.701.944a7.5 7.5 0 00-1.759 10.46c25.189 35.372 21.189 83.328-9.511 114.028-30.7 30.699-78.655 34.7-114.028 9.511a7.5 7.5 0 10-8.701 12.219c17.558 12.503 38.664 19.188 60.182 19.188 2.675 0 5.36-.104 8.042-.312 24.551-1.909 47.675-12.562 65.111-30 17.437-17.437 28.091-40.561 30-65.112 1.885-24.253-4.818-48.482-18.876-68.224a7.5 7.5 0 00-10.46-1.758z"/></symbol></svg>